<svg xmlns="http://www.w3.org/2000/svg" viewBox="0 0 634.5031 186.25244"><title>deemos-white</title><g id="Calque_2" data-name="Calque 2"><g id="Calque_1-2" data-name="Calque 1"><path d="M185.22771,129.66152a2.86914,2.86914,0,0,1-2.88086-2.87988V48.661a2.92067,2.92067,0,0,1,.84082-2.16015,2.77924,2.77924,0,0,1,2.04-.83985H214.507q12.1201,0,19.98046,3.72022A25.72241,25.72241,0,0,1,246.36736,60.4208q4.01952,7.32129,4.13965,17.88037.23877,5.28222.24023,9.36035,0,4.08105-.24023,9.24023-.24171,11.15919-4.08008,18.41993a23.96587,23.96587,0,0,1-11.58008,10.7998q-7.73877,3.54052-19.73926,3.54Zm13.7998-13.7998H214.507a26.4406,26.4406,0,0,0,10.91992-1.9209,12.24072,12.24072,0,0,0,6.18066-6.17969A28.05315,28.05315,0,0,0,233.7072,96.5414q.11865-3.60059.17969-6.2998.06006-2.70117,0-5.40039-.06153-2.69972-.17969-6.17969-.2417-9.83788-4.91992-14.52051-4.68018-4.68018-14.87988-4.68017H199.02751Z" style="fill:#fff"/><path d="M292.14568,130.86172q-13.31984,0-21.12012-7.68067-7.80176-7.67724-8.40039-21.83984-.12012-1.19825-.11914-3.05957a28.09422,28.09422,0,0,1,.11914-2.94043,35.66388,35.66388,0,0,1,4.14062-15.59961A25.26165,25.26165,0,0,1,276.90544,69.601a31.322,31.322,0,0,1,15.24024-3.54q9.71923,0,16.32031,4.02a25.482,25.482,0,0,1,9.96,11.16065,38.37276,38.37276,0,0,1,3.35938,16.5v2.51953a2.77925,2.77925,0,0,1-.83985,2.04,2.923,2.923,0,0,1-2.16015.83984H278.94548v.96a21.16406,21.16406,0,0,0,1.62012,7.74024,13.38108,13.38108,0,0,0,4.44043,5.70019,11.52838,11.52838,0,0,0,7.01953,2.16016,13.32739,13.32739,0,0,0,9.36035-3.36035,15.35092,15.35092,0,0,0,2.04-2.16016,5.72687,5.72687,0,0,1,1.73926-1.74023,5.03592,5.03592,0,0,1,1.98047-.29981H317.466a2.807,2.807,0,0,1,1.97949.72071,2.01988,2.01988,0,0,1,.66016,1.7998,10.08844,10.08844,0,0,1-1.98047,4.67969,23.34968,23.34968,0,0,1-5.33984,5.40039,29.97884,29.97884,0,0,1-8.69922,4.37988A37.76344,37.76344,0,0,1,292.14568,130.86172Zm-13.2002-37.80079H305.466v-.35937a19.81941,19.81941,0,0,0-1.56055-8.16016,12.921,12.921,0,0,0-4.55957-5.52051,12.70149,12.70149,0,0,0-18.90039,5.52051,20.47829,20.47829,0,0,0-1.5,8.16016Z" style="fill:#fff"/><path d="M361.38494,130.86172q-13.31983,0-21.12012-7.68067-7.80175-7.67724-8.39942-21.83984-.12158-1.19825-.12011-3.05957a27.78239,27.78239,0,0,1,.12011-2.94043,35.65027,35.65027,0,0,1,4.13965-15.59961A25.26165,25.26165,0,0,1,346.1447,69.601a31.322,31.322,0,0,1,15.24024-3.54q9.72069,0,16.32031,4.02a25.4761,25.4761,0,0,1,9.96,11.16065,38.3728,38.3728,0,0,1,3.36035,16.5v2.51953a2.77638,2.77638,0,0,1-.84082,2.04,2.92226,2.92226,0,0,1-2.15918.83984H348.18474v.96a21.16406,21.16406,0,0,0,1.62012,7.74024,13.396,13.396,0,0,0,4.44043,5.70019,11.52838,11.52838,0,0,0,7.01953,2.16016,13.3225,13.3225,0,0,0,9.36035-3.36035,15.35092,15.35092,0,0,0,2.04-2.16016,5.71615,5.71615,0,0,1,1.74023-1.74023,5.02722,5.02722,0,0,1,1.9795-.29981h10.32031a2.80534,2.80534,0,0,1,1.97949.72071,2.01988,2.01988,0,0,1,.66016,1.7998,10.08494,10.08494,0,0,1-1.9795,4.67969,23.34948,23.34948,0,0,1-5.33984,5.40039,29.9851,29.9851,0,0,1-8.70019,4.37988A37.76344,37.76344,0,0,1,361.38494,130.86172Zm-13.2002-37.80079h26.52051v-.35937a19.81958,19.81958,0,0,0-1.56055-8.16016,12.91413,12.91413,0,0,0-4.55957-5.52051,12.70149,12.70149,0,0,0-18.90039,5.52051,20.47812,20.47812,0,0,0-1.5,8.16016Z" style="fill:#fff"/><path d="M406.62419,129.66152a2.86748,2.86748,0,0,1-2.87988-2.87988V70.141a2.86748,2.86748,0,0,1,2.87988-2.87988h9.36035a2.8675,2.8675,0,0,1,2.87989,2.87988v4.08008a20.86179,20.86179,0,0,1,6.78027-5.7002,21.7,21.7,0,0,1,10.13965-2.46q13.68018-.23877,19.08008,10.68067a20.658,20.658,0,0,1,7.97949-7.74072A23.19544,23.19544,0,0,1,474.424,66.06093a22.66769,22.66769,0,0,1,11.34082,2.87989,20.04523,20.04523,0,0,1,8.04,8.70019q2.93847,5.82276,2.93945,14.7002v34.44043a2.86748,2.86748,0,0,1-2.87988,2.87988h-9.83985a2.86748,2.86748,0,0,1-2.87988-2.87988V93.30117a19.71223,19.71223,0,0,0-1.56055-8.58008,9.46048,9.46048,0,0,0-4.20019-4.5,12.97538,12.97538,0,0,0-5.87988-1.31934,11.71982,11.71982,0,0,0-5.2793,1.31934,10.05438,10.05438,0,0,0-4.32031,4.5,18.4652,18.4652,0,0,0-1.67969,8.58008v33.48047a2.86914,2.86914,0,0,1-2.88086,2.87988h-9.83984a2.72233,2.72233,0,0,1-2.09961-.83984,2.88269,2.88269,0,0,1-.78028-2.04V93.30117a18.49,18.49,0,0,0-1.67968-8.58008,10.07455,10.07455,0,0,0-4.32032-4.5,12.45733,12.45733,0,0,0-5.63965-1.31934,11.53565,11.53565,0,0,0-5.40039,1.37989,10.4575,10.4575,0,0,0-4.31933,4.5,18.07159,18.07159,0,0,0-1.68067,8.51953v33.48047a2.86748,2.86748,0,0,1-2.87988,2.87988Z" style="fill:#fff"/><path d="M539.58318,130.86172q-9.60059,0-16.13965-3.36036a23.28378,23.28378,0,0,1-9.96-9.48047,32.8262,32.8262,0,0,1-3.90039-14.27929q-.12012-2.16065-.11914-5.28028,0-3.11865.11914-5.28027a31.65346,31.65346,0,0,1,4.02051-14.33984,24.16158,24.16158,0,0,1,10.08007-9.42041q6.53907-3.35742,15.89942-3.35987,9.36034,0,15.90039,3.35987a24.18483,24.18483,0,0,1,10.08008,9.42041,31.69,31.69,0,0,1,4.01953,14.33984q.11865,2.16065.12011,5.28027,0,3.12159-.12011,5.28028a32.83919,32.83919,0,0,1-3.89942,14.27929,23.29463,23.29463,0,0,1-9.96,9.48047Q549.18181,130.85878,539.58318,130.86172Zm0-11.88086q6.36034,0,9.84082-4.01954,3.479-4.01952,3.83984-11.82031.11719-1.80028.12012-4.67969,0-2.87988-.12012-4.67968-.36034-7.67871-3.83984-11.76075-3.48194-4.07812-9.84082-4.08007-6.36182,0-9.83985,4.08007-3.48194,4.08107-3.83984,11.76075-.12012,1.79883-.12012,4.67968,0,2.87989.12012,4.67969.36034,7.80176,3.83984,11.82031Q533.22234,118.9838,539.58318,118.98086Z" style="fill:#fff"/><path d="M606.66228,130.86172a39.58883,39.58883,0,0,1-12.29981-1.68067,27.49563,27.49563,0,0,1-8.33984-4.20019,19.88915,19.88915,0,0,1-4.7998-5.04,9.85542,9.85542,0,0,1-1.67969-4.19922,2.33441,2.33441,0,0,1,.7793-2.10059,2.9613,2.9613,0,0,1,1.98046-.77929h9.4795a2.71383,2.71383,0,0,1,.83984.11914,2.95427,2.95427,0,0,1,.96094.7207q1.55712,1.32129,3.2998,2.75976a16.57177,16.57177,0,0,0,4.13965,2.46,17.80376,17.80376,0,0,0,13.86035-.83985,5.86773,5.86773,0,0,0,3.17969-5.33984,5.93415,5.93415,0,0,0-1.37988-4.08008,12.05552,12.05552,0,0,0-5.09961-2.82031,97.458,97.458,0,0,0-10.56055-2.7002,44.85653,44.85653,0,0,1-11.16016-3.96,16.6808,16.6808,0,0,1-6.5996-6,16.40434,16.40434,0,0,1,.66015-17.33984,20.83616,20.83616,0,0,1,8.39942-7.02,31.12385,31.12385,0,0,1,13.86035-2.76026,35.33924,35.33924,0,0,1,11.28027,1.62012,28.11381,28.11381,0,0,1,7.97949,4.02,21.52485,21.52485,0,0,1,4.86035,4.85986,9.08121,9.08121,0,0,1,1.79981,4.26075,2.4103,2.4103,0,0,1-.71973,2.09961,2.73738,2.73738,0,0,1-1.91992.78027h-8.87988a2.3584,2.3584,0,0,1-1.08008-.24024,6.15607,6.15607,0,0,1-.96-.5996q-1.32276-1.19825-2.88086-2.52051a16.51133,16.51133,0,0,0-3.7793-2.33985,14.08776,14.08776,0,0,0-5.82031-1.0205q-4.56153,0-6.96,1.98046a6.18906,6.18906,0,0,0-2.40039,4.9795,5.66886,5.66886,0,0,0,1.14062,3.54q1.13819,1.50292,4.62012,2.82031a72.86,72.86,0,0,0,10.55957,2.75976,38.52811,38.52811,0,0,1,12.78027,4.26075,17.51821,17.51821,0,0,1,6.71973,6.47949,16.75216,16.75216,0,0,1,1.98047,8.10058,15.99819,15.99819,0,0,1-3.18066,9.71973,20.79286,20.79286,0,0,1-9.35938,6.78027A41.60493,41.60493,0,0,1,606.66228,130.86172Z" style="fill:#fff"/><path d="M68.17508,175.16841a117.99244,117.99244,0,0,0,9.11459-13.43507A114.79132,114.79132,0,0,0,89.49033,130.919a124.85908,124.85908,0,0,0,3.25449-30.23883q-.08644-8.38743.00114-16.77628a20.29828,20.29828,0,0,0-3.87254-12.77505,15.5942,15.5942,0,0,0-6.63329-5.32307c-2.91954-1.17806-5.83494-2.02418-8.99515-1.29843a17.39107,17.39107,0,0,0-10.99164,7.242,21.62162,21.62162,0,0,0-3.482,12.63271c-.01076,8.161.24476,16.32642-.15854,24.48239a71.8261,71.8261,0,0,1-3.06085,16.93587,70.34992,70.34992,0,0,1-2.56015,7.22886c-.5128,1.22011-1.28831,1.71969-2.2524,1.22621a1.69925,1.69925,0,0,1-.71854-2.4262,77.19389,77.19389,0,0,0,3.0238-8.93385,78.69362,78.69362,0,0,0,2.65062-20.80152c.00453-6.80974-.08543-13.62121.04118-20.42866a21.49957,21.49957,0,0,1,4.52241-12.73176,21.27252,21.27252,0,0,1,8.31552-6.56355,16.56074,16.56074,0,0,1,12.90018-.64226A20.7214,20.7214,0,0,1,94.439,74.76765a26.00138,26.00138,0,0,1,1.40327,9.13788c-.031,7.48616.02774,14.97291-.0387,22.45864a114.6962,114.6962,0,0,1-3.33784,25.7478,116.74265,116.74265,0,0,1-9.14029,25.11711A118.37138,118.37138,0,0,1,73.77327,173.104c-2.52741,3.5401-5.34053,6.826-8.104,10.16341-.2858.34518-.65034.624-.96279.94851-.76879.79857-1.65142,1.03511-2.48193.21915a1.73939,1.73939,0,0,1,.0523-2.56166c1.544-1.73576,3.16689-3.4014,4.75766-5.09559C67.79713,176.51233,67.70138,175.63861,68.17508,175.16841Z" style="fill:#fff"/><path d="M114.41942,93.0395c0,5.85841.15249,10.32836-.03283,14.78427a146.58416,146.58416,0,0,1-3.00113,25.00357c-.71138,3.28373-1.5487,6.54069-2.36368,9.8011-.25365,1.01474-.84024,1.71611-2.03506,1.472-1.021-.20858-1.47765-1.18024-1.065-2.50581a98.51213,98.51213,0,0,0,2.68287-11.10693,144.68393,144.68393,0,0,0,2.16662-16.292c.78775-10.89614.376-21.80089.39155-32.70031A37.21688,37.21688,0,0,0,107.58558,65.853,37.982,37.982,0,0,0,98.278,53.00294a37.16951,37.16951,0,0,0-8.75968-5.83469c-8.03559-3.83349-16.26288-3.88145-24.535-1.27837a31.248,31.248,0,0,0-12.01017,7.31789,39.16151,39.16151,0,0,0-12.42357,25.676c-.51628,5.4866-.10066,10.98591-.235,16.47764-.01323.54077.01823,1.08487-.03052,1.622a1.52032,1.52032,0,0,1-1.58882,1.5106,1.56716,1.56716,0,0,1-1.57421-1.40187,3.14647,3.14647,0,0,1-.03553-.67412c-.00135-5.23-.18676-10.46843.048-15.68791a43.61453,43.61453,0,0,1,4.559-17.74176,41.40871,41.40871,0,0,1,9.9467-13.05346,44.01776,44.01776,0,0,1,9.24748-6.0403c5.39789-2.70041,11.12531-3.36149,16.99382-3.14655A30.72171,30.72171,0,0,1,89.0421,43.09665a38.73423,38.73423,0,0,1,9.95336,5.9525,43.3723,43.3723,0,0,1,14.70164,25.853C114.89435,81.39623,114.17386,87.9256,114.41942,93.0395Z" style="fill:#fff"/><path d="M31.07838,92.59679c.00027,3.56221.03471,7.12483-.007,10.68656a45.40983,45.40983,0,0,1-4.79961,20.25249,41.939,41.939,0,0,1-9.01848,12.07122,50.6068,50.6068,0,0,1-6.63586,4.93377c-1.1846.78206-2.18838.53505-2.67109-.40992-.47648-.93279-.04233-1.91514,1.03666-2.55956a36.83794,36.83794,0,0,0,11.6517-10.88647,41.63946,41.63946,0,0,0,6.12568-13.81831,35.5331,35.5331,0,0,0,1.07051-8.13469c.0699-7.71-.0407-15.42187.057-23.13126a53.88932,53.88932,0,0,1,3.551-18.55314,52.27955,52.27955,0,0,1,12.37245-19.169A50.55833,50.55833,0,0,1,51.1837,37.9336a46.30912,46.30912,0,0,1,17.17071-6.81231,37.55143,37.55143,0,0,1,12.71806-.39684,46.79552,46.79552,0,0,1,11.54444,2.976c2.01065.85412,3.94421,1.89844,5.87625,2.92526a1.85121,1.85121,0,0,1,.83317,2.52808c-.62278,1.06154-1.54115.951-2.45518.48084-4.03228-2.07419-8.09035-4.08709-12.64611-4.74391-3.00408-.43311-5.96753-1.29885-9.03686-1.10312a49.32786,49.32786,0,0,0-14.93137,3.1133,33.64868,33.64868,0,0,0-6.45224,3.26826A47.49675,47.49675,0,0,0,45.37845,47.035,55.16182,55.16182,0,0,0,39.61,54.11038a50.79576,50.79576,0,0,0-7.37435,17.49579,56.06745,56.06745,0,0,0-1.16723,13.14494C31.12151,87.36532,31.07812,89.9815,31.07838,92.59679Z" style="fill:#fff"/><path d="M4.2015,56.58045a13.94478,13.94478,0,0,1,1.20709-4.29916,91.23113,91.23113,0,0,1,4.79256-10.81886,78.76321,78.76321,0,0,1,9.1326-13.86795,83.399,83.399,0,0,1,7.64782-8.10227c2.84063-2.65679,6.025-4.84365,9.0373-7.26218a18.05946,18.05946,0,0,1,2.206-1.30349c2.54117-1.49748,5.13969-2.87829,7.766-4.22743a85.18677,85.18677,0,0,1,8.60736-3.31962C59.63877,1.4387,64.93668.96036,70.23663.33941,78.65989-.64748,86.855.64,94.96413,2.62563a55.0192,55.0192,0,0,1,9.20382,3.2951,73.89226,73.89226,0,0,1,22.37374,15.4326,32.21272,32.21272,0,0,1,4.142,4.558,1.95875,1.95875,0,0,1-.39917,2.64189c-.89135.51023-1.46941.16423-2.14434-.63369-1.38614-1.63876-2.96248-3.11907-4.48751-4.63748A65.24931,65.24931,0,0,0,112.608,14.43516,71.60787,71.60787,0,0,0,96.04531,6.62144,64.92388,64.92388,0,0,0,81.06418,3.825,67.49259,67.49259,0,0,0,57.92455,5.85156a66.02863,66.02863,0,0,0-15.40161,6.40791,92.51894,92.51894,0,0,0-8.89846,5.95694c-1.96193,1.44639-3.68511,3.21489-5.52954,4.82275a62.972,62.972,0,0,0-9.30611,10.68A83.70528,83.70528,0,0,0,7.6874,55.27152c-.16341.46277-.2375.95643-.38719,1.42483a1.55132,1.55132,0,0,1-1.82366,1.241A1.37852,1.37852,0,0,1,4.2015,56.58045Z" style="fill:#fff"/><path d="M9.35767,90.901c-.00019-4.732-.19271-9.47108.18414-14.19315A77.78006,77.78006,0,0,1,12.673,60.06506a73.18435,73.18435,0,0,1,8.89538-19.205,74.33121,74.33121,0,0,1,7.01734-9.14871A67.47764,67.47764,0,0,1,39.226,22.16257a72.13249,72.13249,0,0,1,9.7487-5.84341,87.97505,87.97505,0,0,1,8.84366-3.44981C62.20257,11.244,66.75195,10.788,71.336,10.376a29.33943,29.33943,0,0,1,3.49745-.214c1.11918.03306,1.78889.52042,1.80073,1.7115.01255,1.26327-.45991,1.72778-1.80936,1.77721a58.06529,58.06529,0,0,0-13.21848,1.64,65.35413,65.35413,0,0,0-9.23588,3.13485A57.63285,57.63285,0,0,0,41.69108,24.467,67.40264,67.40264,0,0,0,30.49,34.58583a75.21845,75.21845,0,0,0-5.84278,7.51282A70.67739,70.67739,0,0,0,14.60285,65.1568a87.27261,87.27261,0,0,0-2.14711,21.5467q.09753,8.5188-.00563,17.03943a22.5624,22.5624,0,0,1-4.60552,13.52865c-1.03829,1.39251-2.36772,2.41459-3.4691,3.69631a1.453,1.453,0,0,1-2.27145.10984,1.96743,1.96743,0,0,1,.11353-2.66512,30.53378,30.53378,0,0,0,3.99273-4.49228A20.222,20.222,0,0,0,9.34289,103.3419C9.40794,99.19588,9.35767,95.04805,9.35767,90.901Z" style="fill:#fff"/><path d="M123.65669,93.13238c0,5.13886.07455,9.06411-.01458,12.98565a161.02628,161.02628,0,0,1-3.37337,29.7178,153.70437,153.70437,0,0,1-7.80995,25.73006A122.3437,122.3437,0,0,1,104.04336,178.84c-.16039.26743-.25244.575-.39059.85681a1.67905,1.67905,0,0,1-2.17353,1.07069,1.792,1.792,0,0,1-.81215-2.42314,24.19722,24.19722,0,0,1,1.2618-2.37493,135.95283,135.95283,0,0,0,10.45332-23.42606,149.6615,149.6615,0,0,0,6.65206-27.99479,156.41663,156.41663,0,0,0,1.42228-23.1594c-.06137-6.67375.0379-13.349-.02733-20.02269a50.42483,50.42483,0,0,0-2.64665-15.21627,51.27713,51.27713,0,0,0-7.14031-13.94448,23.57867,23.57867,0,0,0-3.57616-4.18688c-.94825-.82531-1.61566-1.89657-2.56523-2.73562a1.70963,1.70963,0,0,1-.01155-2.4465c.793-.92945,1.77584-.58218,2.478.16583a70.43048,70.43048,0,0,1,5.62945,6.2923,55.87774,55.87774,0,0,1,6.62995,11.50647,57.47289,57.47289,0,0,1,3.9208,14.37518C124.03171,81.55279,123.47193,87.95826,123.65669,93.13238Z" style="fill:#fff"/><path d="M48.67692,153.48956c1.21769-1.87247,2.44908-3.73619,3.65063-5.61894a79.9243,79.9243,0,0,0,9.97929-23.55324,98.82946,98.82946,0,0,0,2.63555-25.95276c-.07439-5.09285.05549-10.18885-.03127-15.28131-.08068-4.73592,2.95014-10.366,8.35206-11.65594a11.01211,11.01211,0,0,1,10.39576,3.39672,13.25881,13.25881,0,0,1,2.94364,8.9869c-.03159,7.43793.04376,14.8767-.03492,22.31395a98.6,98.6,0,0,1-1.07647,13.04461,1.44886,1.44886,0,0,1-.03275.26787c-.29523.843-.5634,1.77624-1.64673,1.83914-.77008.04472-1.68741-1.36656-1.52081-2.36342,1.50886-9.028,1.03162-18.13395,1.10033-27.21829.02249-2.975.06789-5.95063.02708-8.92495-.05518-4.02179-2.59212-7.56954-6.51627-8.01562a2.71676,2.71676,0,0,0-2.28044-.00012c-3.849.43108-6.46868,3.92557-6.496,7.87313-.05076,7.34312.04088,14.68746-.03983,22.03006a89.51094,89.51094,0,0,1-2.79188,20.91127,88.08633,88.08633,0,0,1-8.16429,20.69782,72.29445,72.29445,0,0,1-5.72065,8.902c-.3595.15406-.77971.10372-1.10186.41141a1.12088,1.12088,0,0,1-1.66627.0923,1.16452,1.16452,0,0,1-.10414-1.674C48.63113,153.8604,48.59952,153.65212,48.67692,153.48956Z" style="fill:#fff"/><path d="M142.195,97.65421c.08663,5.38-.0074,12.22833-.44011,19.06794-.09333,1.47542-.3825,2.9386-.47221,4.41405-.06669,1.09675-.59014,1.70646-1.62356,1.75442a1.84145,1.84145,0,0,1-1.58963-2.14876c.28729-2.00627.36237-4.02563.52243-6.04083q.4763-5.99708.4677-12.00662c-.00287-6.898.07754-13.79727-.03314-20.6935a74.39649,74.39649,0,0,0-3.74257-22.4944,71.24348,71.24348,0,0,0-9.16522-18.478A66.59305,66.59305,0,0,0,114.852,28.50021a64.4659,64.4659,0,0,0-8.889-6.41165,57.74368,57.74368,0,0,0-13.93841-6.08591c-2.10421-.59622-4.1888-1.19265-6.34031-1.58374-1.166-.21194-1.494-1.07987-1.28689-2.14664.20021-1.03116.92678-1.34031,1.90578-1.21816a55.01772,55.01772,0,0,1,14.09333,4.23859,39.71114,39.71114,0,0,1,6.003,2.95055,71.33343,71.33343,0,0,1,20.18045,17.777,73.34516,73.34516,0,0,1,9.60862,16.71565,81.10517,81.10517,0,0,1,3.37064,9.92291,77.85,77.85,0,0,1,2.63748,19.99845C142.1879,87.16573,142.195,91.67423,142.195,97.65421Z" style="fill:#fff"/><path d="M74.57683,20.31251c5.0765-.03213,8.86284.16521,12.51986,1.17261A63.6172,63.6172,0,0,1,96.80455,24.602a62.15265,62.15265,0,0,1,10.31015,5.89317,55.8304,55.8304,0,0,1,10.25843,9.38427,64.95976,64.95976,0,0,1,13.46511,26.20649c.123.48545.30362,1.01189-.0167,1.43753-.37765.50185-.52606,1.274-1.4121,1.26939-.9341-.00486-1.22637-.71268-1.4514-1.3557-.56183-1.60546-.99361-3.25583-1.52074-4.87413A61.89743,61.89743,0,0,0,120.82,50.37637a58.43809,58.43809,0,0,0-7.75141-10.23683,48.03287,48.03287,0,0,0-5.794-5.18959A60.92218,60.92218,0,0,0,96.46374,28.3388a61.50279,61.50279,0,0,0-8.18955-2.88442,43.12787,43.12787,0,0,0-13.81964-1.75533,49.61875,49.61875,0,0,0-18.1651,3.9729,46.13039,46.13039,0,0,0-10.55929,6.033,84.36585,84.36585,0,0,0-7.25275,6.36465c-.69464.66671-1.29675,1.12-2.01281.54524a1.77912,1.77912,0,0,1-.5087-2.49853,6.178,6.178,0,0,1,1.07354-1.3584c1.77369-1.49871,3.36284-3.19893,5.2271-4.6032A64.19176,64.19176,0,0,1,53.40316,25.283a84.81642,84.81642,0,0,1,8.79945-3.16184A40.83366,40.83366,0,0,1,74.57683,20.31251Z" style="fill:#fff"/><path d="M18.123,156.11046a2.33728,2.33728,0,0,1,1.22913-1.76536,39.9765,39.9765,0,0,0,10.3217-8.30427,61.01172,61.01172,0,0,0,15.52529-30.52542,70.53192,70.53192,0,0,0,1.18116-13.68408c-.01937-7.03228-.13886-14.07.09043-21.09542a31.51584,31.51584,0,0,1,4.56192-15.1746A29.34587,29.34587,0,0,1,63.35336,53.78159c1.6052-.79378,2.59545-.67356,3.07031.26762.522,1.03451-.1581,2.1197-1.65806,2.84482a25.67056,25.67056,0,0,0-9.62272,8.35331c-4.27447,5.89881-5.71527,12.56075-5.62978,19.70925q.11728,9.80652-.00155,19.61546a65.23093,65.23093,0,0,1-5.1585,24.64392,63.04459,63.04459,0,0,1-9.57073,15.95408,59.52548,59.52548,0,0,1-9.382,9.15761A31.84288,31.84288,0,0,1,20.3877,157.604,1.51905,1.51905,0,0,1,18.123,156.11046Z" style="fill:#fff"/><path d="M77.3715,95.243c0,3.06624.04089,6.13314-.00764,9.19862a101.75661,101.75661,0,0,1-4.12053,27.50313A94.97252,94.97252,0,0,1,65.214,151.16113a92.7153,92.7153,0,0,1-8.21623,12.40735A81.63535,81.63535,0,0,1,45.1752,175.97817c-.47973.39857-.75153.97693-1.30781,1.32573-.79451.49821-1.60458.62415-2.17849-.122a1.7035,1.7035,0,0,1,.02774-2.4406,24.11593,24.11593,0,0,1,1.8126-1.78729A69.68047,69.68047,0,0,0,54.4046,161.63456a87.47835,87.47835,0,0,0,11.40786-18.768,94.10872,94.10872,0,0,0,6.66685-21.2721,101.89606,101.89606,0,0,0,1.68814-19.18954c-.02239-6.35727-.00242-12.71471.00221-19.07207.001-1.35364.54864-2.04648,1.59578-2.04437,1.04582.00212,1.58663.69307,1.58769,2.052q.00464,5.95127.00109,11.90254Z" style="fill:#fff"/><path d="M132.87716,98.88582a178.013,178.013,0,0,1-.62332,20.06211,170.1055,170.1055,0,0,1-3.01055,19.70536A166.70618,166.70618,0,0,1,122.53045,161.64c-1.13406,3.06534-2.47432,6.05441-3.72422,9.07675-.08572.20724-.20369.40092-.301.6036a1.48813,1.48813,0,0,1-2.00052.87522,1.50976,1.50976,0,0,1-.95931-2.08283c.40747-1.18428.92649-2.332,1.43043-3.481a151.94966,151.94966,0,0,0,9.83971-32.10817c.902-4.62666,1.4858-9.30075,2.026-13.98687,1.22191-10.60033.85806-21.23481.9189-31.86141.01911-3.33507.11752-6.67323-.168-10.00438a5.74083,5.74083,0,0,1,.01126-1.08087,1.474,1.474,0,0,1,1.53219-1.41415,1.40332,1.40332,0,0,1,1.49384,1.283,21.16493,21.16493,0,0,1,.23693,2.82432C132.88748,86.19047,132.87716,92.09777,132.87716,98.88582Z" style="fill:#fff"/><path d="M21.75229,94.30479c-.0681,3.40127.24445,7.78426-.14909,12.1407a33.01856,33.01856,0,0,1-6.25606,16.78191,34.9159,34.9159,0,0,1-8.25132,7.90783c-.91232.64743-1.86722.7968-2.62486-.175-.66208-.84923-.14859-2.12508.93726-2.84059a28.313,28.313,0,0,0,12.05514-16.66,38.95058,38.95058,0,0,0,1.18536-10.677c-.0392-6.8965-.11215-13.79565.03041-20.68954a63.87757,63.87757,0,0,1,3.86745-20.15958,72.66859,72.66859,0,0,1,6.786-13.68043A1.48078,1.48078,0,0,1,31.485,45.544a1.608,1.608,0,0,1,.68513,2.406c-1.01288,1.7401-2.09877,3.4331-3.05378,5.21226a63.39917,63.39917,0,0,0-7.369,31.24815C21.78,87.3851,21.75229,90.3605,21.75229,94.30479Z" style="fill:#fff"/><path d="M104.96321,110.11383a137.77618,137.77618,0,0,1-4.558,28.532A131.75359,131.75359,0,0,1,91.841,161.4093a113.96955,113.96955,0,0,1-8.18795,14.20346,98.12172,98.12172,0,0,1-7.26348,9.79976c-.5767.65542-1.04689,1.13157-1.888.63212a1.934,1.934,0,0,1-.61141-2.59134,51.06713,51.06713,0,0,1,3.40478-4.47815A125.71118,125.71118,0,0,0,84.51827,168.147a127.51729,127.51729,0,0,0,8.3584-17.12234,126.58645,126.58645,0,0,0,6.10919-19.915,118.00064,118.00064,0,0,0,2.27613-14.4925c.27591-2.95507.43137-5.9154.64927-8.87246.08178-1.10973.6063-1.69943,1.67623-1.66063,1.04011.03774,1.487.75828,1.4914,1.73495C105.08235,108.5838,105.00478,109.34889,104.96321,110.11383Z" style="fill:#fff"/><path d="M148.27511,91.57569c0-3.38045.0586-6.7621-.0115-10.1411a85.37247,85.37247,0,0,0-4.08278-24.90205,80.493,80.493,0,0,0-8.80954-18.8181c-.54837-.84917-1.40284-1.65989-1.23594-2.891.10285-.75871.383-1.29815,1.16152-1.44025a1.54091,1.54091,0,0,1,1.79437.8248c1.39709,2.44737,2.95417,4.79654,4.25939,7.30465a89.812,89.812,0,0,1,5.9273,14.12935,85.88823,85.88823,0,0,1,3.36225,14.951,90.97127,90.97127,0,0,1,.86043,12.235c-.02571,6.80589-.00764,13.61194-.00967,20.41791-.00061,2.07111-.4599,2.8083-1.71106,2.76227-1.13178-.04166-1.50023-.73876-1.49864-2.80377q.00446-5.81436.00087-11.62874Z" style="fill:#fff"/><path d="M105.14367,88.95817c0,2.65868-.00888,5.3174.00424,7.976.00548,1.11161-.89054,2.37116-1.73246,2.14388a1.89741,1.89741,0,0,1-1.43288-2.01033c.03366-4.55392.0075-9.10823.01558-13.66239A30.78946,30.78946,0,0,0,96.06051,64.742a23.85678,23.85678,0,0,0-4.9806-5.073,25.17029,25.17029,0,0,0-10.91764-5.0736,28.27127,28.27127,0,0,0-5.78469-.35726c-1.118.04239-1.8258-.39141-1.88276-1.58711-.05653-1.18688.51018-1.81438,1.77612-1.88773A25.91028,25.91028,0,0,1,84.8896,52.249a28.20065,28.20065,0,0,1,9.97047,6.1596A33.52758,33.52758,0,0,1,105.154,82.87094c.02259,2.02884.0033,4.05814.0033,6.08723Z" style="fill:#fff"/><path d="M83.49932,129.75986c-.70465,2.49892-1.31712,5.02832-2.13147,7.49095a106.68764,106.68764,0,0,1-8.849,20.19049,102.54908,102.54908,0,0,1-8.34,12.486,84.33383,84.33383,0,0,1-8.03181,9.14688,30.5128,30.5128,0,0,1-2.36834,2.35966,1.62,1.62,0,0,1-2.39462.0103,1.98688,1.98688,0,0,1,.28765-2.67647c1.0102-.8277,1.85262-1.81332,2.78862-2.70584A80.45512,80.45512,0,0,0,64.08783,164.686,100.11451,100.11451,0,0,0,76.9899,140.133a80.12255,80.12255,0,0,0,3.21071-10.6976c.20664-.98169.70192-1.80248,1.9238-1.60395C83.19066,128.00474,83.45655,128.76839,83.49932,129.75986Z" style="fill:#fff"/><path d="M39.79533,110.52961a44.85975,44.85975,0,0,1-2.32407,10.541,52.00645,52.00645,0,0,1-8.61472,16.17617,54.34885,54.34885,0,0,1-7.74953,7.95819c-1.72044,1.43533-3.72826,2.42349-5.36977,3.93165a3.1207,3.1207,0,0,1-.8224.46039,1.54645,1.54645,0,0,1-2.22613-.57159,1.68356,1.68356,0,0,1,.5363-2.38207c.90053-.64838,1.82733-1.26093,2.75219-1.87479A45.81906,45.81906,0,0,0,30.613,128.62974a51.23222,51.23222,0,0,0,6.048-18.29051,3.62633,3.62633,0,0,1,.03833-.40318c.25573-.99809.41081-2.27017,1.79829-2.06537C39.75112,108.0557,39.93374,109.18141,39.79533,110.52961Z" style="fill:#fff"/><path d="M.03641,91.06393c0-3.60711-.09608-7.21743.02392-10.82055A87.84866,87.84866,0,0,1,1.6062,66.32064c.12383-.63432.1403-1.3816.8044-1.77325a1.48836,1.48836,0,0,1,1.67056.01583,1.79564,1.79564,0,0,1,.74072,1.78155c-2.37641,11.68454-1.352,23.51712-1.57761,35.29432-.01037.54086.00452,1.08308-.02851,1.62245a1.45923,1.45923,0,0,1-1.50752,1.56033,1.51089,1.51089,0,0,1-1.64418-1.58455c-.07127-1.07769-.03265-2.163-.0336-3.24494Q.02653,95.52816.02955,91.06393Z" style="fill:#fff"/><path d="M105.808,152.068a11.491,11.491,0,0,1-1.09787,3.3102A135.74049,135.74049,0,0,1,98.63249,168.862a156.52529,156.52529,0,0,1-8.48842,14.33075c-.19785.30016-.42328.58269-.64406.86706-.66621.85809-1.506,1.27269-2.432.51444a1.732,1.732,0,0,1-.19232-2.54763,85.738,85.738,0,0,0,4.67211-7.20049,122.67084,122.67084,0,0,0,9.96277-20.22928c.40863-1.09244.9526-2.12855,1.29071-3.25591a1.38416,1.38416,0,0,1,1.73221-.92512A1.4723,1.4723,0,0,1,105.808,152.068Z" style="fill:#fff"/><path d="M26.507,165.46444c-.7263-.05084-1.36211-.26848-1.54991-.94944a1.7796,1.7796,0,0,1,.428-2.102c.84157-.65139,1.63829-1.3684,2.52024-1.95866a57.15843,57.15843,0,0,0,11.73847-11.14393,38.53418,38.53418,0,0,0,5.11474-7.36386c.09957-.1986.2706-.36.38944-.55059.59-.94611,1.33692-1.50261,2.46153-.88008.93665.51849,1.06686,1.55252.32134,2.71309A78.80154,78.80154,0,0,1,39.66,154.31385a64.93981,64.93981,0,0,1-10.32751,9.30221C28.39505,164.273,27.66066,165.22313,26.507,165.46444Z" style="fill:#fff"/><path d="M131.40588,154.4602c.288-1.04538.60457-2.25977.95731-3.46357a153.56869,153.56869,0,0,0,4.30165-19.17473,1.69185,1.69185,0,0,1,1.84082-1.671c.98967.0344,1.55518,1.0536,1.34974,2.23858a182.24226,182.24226,0,0,1-5.34308,22.76686c-.28377.9176-.77782,1.57793-1.82283,1.39705C131.65705,156.37469,131.36119,155.59129,131.40588,154.4602Z" style="fill:#fff"/><path d="M48.67692,153.48956a2.42045,2.42045,0,0,1,.15448.649c-.05792,1.3048.31726,1.63533,1.38542.68418.52866-.47075.89143-.107,1.19217.34565a91.952,91.952,0,0,1-6.15317,7.40866,110.44449,110.44449,0,0,1-8.69763,8.09394,14.07616,14.07616,0,0,1-1.439.99069,1.48961,1.48961,0,0,1-2.33193-.37395,1.62946,1.62946,0,0,1,.48955-2.47211,35.72573,35.72573,0,0,0,4.14161-3.37482,77.59039,77.59039,0,0,0,8.99208-9.16473C47.20058,155.36864,47.60377,154.15339,48.67692,153.48956Z" style="fill:#fff"/><path d="M68.17508,175.16841c-.26223.62.69,2.10077-1.14052,1.60941A2.244,2.244,0,0,1,68.17508,175.16841Z" style="fill:#fff"/><path d="M74.6216,74.75416a1.39464,1.39464,0,0,1,2.28044.00012Z" style="fill:#fff"/></g></g></svg>